<svg data-v-6805eed4="" version="1.0" xmlns="http://www.w3.org/2000/svg" xmlns:xlink="http://www.w3.org/1999/xlink" width="100%" height="100%" viewBox="0 0 340.000000 250.000000" preserveAspectRatio="xMidYMid meet" color-interpolation-filters="sRGB" style="margin: auto;"> <g data-v-6805eed4="" class="iconmbgsvg" transform="translate(77.35749816894531,73.01807023588371)"><g fill="#ffffff" hollow-target="text"><g mask="url(#8d1f8474-88f2-45fe-a233-a2d22dfdf60d)"><g><rect fill="#ffffff" fill-opacity="0" stroke-width="2" x="0" y="0" width="110" height="103.96385838232236" class="image-rect"></rect> <svg filter="url(#colors8690001056)" x="0" y="0" width="110" height="103.96385838232236" filtersec="colorsf6494169955" class="image-svg-svg primary" style="overflow: visible;"><svg viewBox="0.771247386932373 0.21232318878173828 109.73983764648438 103.71829223632812" xmlns="http://www.w3.org/2000/svg"><path d="M104.932 7.66c13.298 14.78 2.01 46.646-25.212 71.173-27.222 24.528-60.071 32.43-73.37 17.65C1.34 90.913-.18 82.92 1.327 73.808c.172 3.994 1.352 7.524 3.643 10.356 10.075 12.45 37.823 6.677 61.978-12.895 24.155-19.573 35.57-45.533 25.495-57.984-8.083-9.99-27.543-8.248-47.396 2.94-2.452 3.455-2.232 5.916-1.777 8.168l.074.36c.165.778.342 1.536.428 2.306-4.057-3.383-9.28-2.978-15.667 1.213l-.356.237c6.167-5 8.225-10 6.173-15 .6.262 1.174.582 1.758.909l.319.178.322.177c1.83.993 3.879 1.854 7.239 1.02C67.812-1.02 93.542-4.998 104.932 7.66z" fill-rule="evenodd" opacity=".989"></path></svg></svg> <defs><filter id="colors8690001056"><feColorMatrix type="matrix" values="0 0 0 0 0.95703125  0 0 0 0 0.5625  0 0 0 0 0.046875  0 0 0 1 0" class="icon-fecolormatrix"></feColorMatrix></filter> <filter id="colorsf6494169955"><feColorMatrix type="matrix" values="0 0 0 0 0.99609375  0 0 0 0 0.99609375  0 0 0 0 0.99609375  0 0 0 1 0" class="icon-fecolormatrix"></feColorMatrix></filter> <filter id="colorsb7803835570"><feColorMatrix type="matrix" values="0 0 0 0 0  0 0 0 0 0  0 0 0 0 0  0 0 0 1 0" class="icon-fecolormatrix"></feColorMatrix></filter></defs></g><rect v-gra="id" width="122" height="115.96385955810547" transform="translate(-6, -6)" style="pointer-events:none;" fill="url(#hDNsIaWv8nChgTR2lrez6)"></rect></g> <g transform="translate(2.7150039672851562,38.84493064880371)"><g data-gra="path-name" fill-rule="" class="tp-name" transform="translate(0,0)"><g transform="scale(1)"><g><path d="M3.4-28.8L13.98-28.8 10.9-7.18 28.11-7.18 27.69-2.76 4.74-2.76Q3.4-2.76 2.74-3.63 2.07-4.51 2.07-5.84L2.07-5.84 4.74-27.05 3.4-28.8ZM33.53-28.8L44.16-28.8 40.16-2.76 31.79-2.76 34.87-27.05 33.53-28.8ZM50.28-28.8L60.44-28.8 57.36-7.18 67.94-7.18 71.07-27.51 69.28-28.8 79.9-28.8 76.36-2.76 51.2-2.76Q49.86-2.76 49.2-3.63 48.53-4.51 48.53-5.84L48.53-5.84 51.61-27.51 50.28-28.8ZM86.25-8.05L102.17-8.05 103.04-13.34 85.38-13.34 87.58-28.8 113.62-28.8 112.75-21.3 103.91-21.3 104.37-24.38 95.96-24.38 94.62-17.76 112.29-17.76 110.54-5.84Q110.54-5.2 110.24-4.62 109.94-4.05 109.43-3.63 108.93-3.22 108.31-2.99 107.69-2.76 107-2.76L107-2.76 84.04-2.76 84.92-9.84 86.25-8.05ZM119.51-28.8L130.13-28.8 128.8-18.68 139.06-18.68 140.3-27.05 138.97-28.8 149.13-28.8 145.59-2.76 136.76-2.76 138.51-14.26 128.2-14.26 126.59-2.76 117.76-2.76 121.3-27.51 119.51-28.8ZM155.02-28.8L165.19-28.8 162.1-7.18 172.68-7.18 175.81-27.51 174.02-28.8 184.64-28.8 181.1-2.76 155.94-2.76Q154.61-2.76 153.94-3.63 153.27-4.51 153.27-5.84L153.27-5.84 156.35-27.51 155.02-28.8Z" transform="translate(-2.069999933242798, 28.799999237060547)"></path></g> <!----> <!----> <!----> <!----> <!----> <!----> <!----></g></g> <g data-gra="path-slogan" fill-rule="" class="tp-slogan" fill="url(#6a6d18ea-997e-40d2-9983-bb69698e5898)" transform="translate(133.8949956893921,33.03999900817871)"><!----> <!----> <g transform="scale(1, 1)"><g transform="scale(1)"><path d="M11.94-1.08L12.61-1.08L12.12 0.07L11.21 0.07Q10.71 0.07 10.35-0.29Q9.98-0.64 9.98-1.16L9.98-1.16L9.98-4.87L11.66-4.87L11.66-2.04L11.66-1.81L11.66-1.36Q11.66-1.25 11.75-1.16Q11.83-1.08 11.94-1.08L11.94-1.08ZM3.50-3.96L2.20 0.06L0.25 0.06L1.55-3.96L3.50-3.96ZM1.55-4.62L0.25-7.78L1.20-7.78L0.25-10.09L2.20-10.09L3.50-6.94L2.53-6.94L3.50-4.62L1.55-4.62ZM3.67-8.36L3.67-9.60L6.82-9.60L6.61-10.16L8.95-10.16L9.16-9.60L12.46-9.60L12.46-8.36L7.69-8.36L6.55-6.64L10.42-6.64L10.16-7.43L11.84-7.43L12.53-5.18L10.85-5.18L10.77-5.45L3.91-5.45L5.52-8.36L3.67-8.36ZM4.69-4.87L6.37-4.87L5.84 0.04L4.16 0.04L4.69-4.87ZM9.09-4.87L9.09 0.04L7.41 0.04L7.41-4.87L9.09-4.87ZM22.70 0.03L22.70-4.07L18.72-4.07L18.72-5.53L22.70-5.53L22.70-7.66L19.14-7.66L19.14-9.11L22.70-9.11L22.70-10.11L24.59-10.11L24.59-9.11L28.16-9.11L27.74-10.11L29.70-10.11L30.55-8.13L29.67-8.13L29.67-5.53L31.03-5.53L31.03-1.41Q31.03-0.85 30.63-0.46L30.63-0.46Q30.21-0.07 29.67-0.07L29.67-0.07L27.64-0.07L28.28-1.53L28.84-1.53Q28.95-1.53 29.05-1.61L29.05-1.61Q29.14-1.71 29.14-1.82L29.14-1.82L29.14-4.07L24.59-4.07L24.59 0.03L22.70 0.03ZM24.59-7.66L24.59-5.53L27.78-5.53L27.78-7.66L24.59-7.66Z" transform="translate(-0.252, 10.164)"></path></g></g></g></g></g></g><mask id="ed06b7d1-dabf-4293-8db9-4b0c9d229b11"><g fill="white"><g><rect fill-opacity="1" stroke-width="2" x="0" y="0" width="110" height="103.96385838232236" class="image-rect"></rect> <svg x="0" y="0" width="110" height="103.96385838232236" class="image-svg-svg primary" style="overflow: visible;" filter="url(#colorsf6494169955)"><svg viewBox="0.771247386932373 0.21232318878173828 109.73983764648438 103.71829223632812" xmlns="http://www.w3.org/2000/svg"><path d="M104.932 7.66c13.298 14.78 2.01 46.646-25.212 71.173-27.222 24.528-60.071 32.43-73.37 17.65C1.34 90.913-.18 82.92 1.327 73.808c.172 3.994 1.352 7.524 3.643 10.356 10.075 12.45 37.823 6.677 61.978-12.895 24.155-19.573 35.57-45.533 25.495-57.984-8.083-9.99-27.543-8.248-47.396 2.94-2.452 3.455-2.232 5.916-1.777 8.168l.074.36c.165.778.342 1.536.428 2.306-4.057-3.383-9.28-2.978-15.667 1.213l-.356.237c6.167-5 8.225-10 6.173-15 .6.262 1.174.582 1.758.909l.319.178.322.177c1.83.993 3.879 1.854 7.239 1.02C67.812-1.02 93.542-4.998 104.932 7.66z" fill-rule="evenodd" opacity=".989"></path></svg></svg> <defs>  </defs></g></g> <g transform="translate(2.7150039672851562,38.84493064880371)" fill="black" stroke="black" stroke-width="6" stroke-linejoin="round"><g data-gra="path-name" fill-rule="" class="tp-name" transform="translate(0,0)"><g transform="scale(1)"><g><path d="M3.4-28.8L13.98-28.8 10.9-7.18 28.11-7.18 27.69-2.76 4.74-2.76Q3.4-2.76 2.74-3.63 2.07-4.51 2.07-5.84L2.07-5.84 4.74-27.05 3.4-28.8ZM33.53-28.8L44.16-28.8 40.16-2.76 31.79-2.76 34.87-27.05 33.53-28.8ZM50.28-28.8L60.44-28.8 57.36-7.18 67.94-7.18 71.07-27.51 69.28-28.8 79.9-28.8 76.36-2.76 51.2-2.76Q49.86-2.76 49.2-3.63 48.53-4.51 48.53-5.84L48.53-5.84 51.61-27.51 50.28-28.8ZM86.25-8.05L102.17-8.05 103.04-13.34 85.38-13.34 87.58-28.8 113.62-28.8 112.75-21.3 103.91-21.3 104.37-24.38 95.96-24.38 94.62-17.76 112.29-17.76 110.54-5.84Q110.54-5.2 110.24-4.62 109.94-4.05 109.43-3.63 108.93-3.22 108.31-2.99 107.69-2.76 107-2.76L107-2.76 84.04-2.76 84.92-9.84 86.25-8.05ZM119.51-28.8L130.13-28.8 128.8-18.68 139.06-18.68 140.3-27.05 138.97-28.8 149.13-28.8 145.59-2.76 136.76-2.76 138.51-14.26 128.2-14.26 126.59-2.76 117.76-2.76 121.3-27.51 119.51-28.8ZM155.02-28.8L165.19-28.8 162.1-7.18 172.68-7.18 175.81-27.51 174.02-28.8 184.64-28.8 181.1-2.76 155.94-2.76Q154.61-2.76 153.94-3.63 153.27-4.51 153.27-5.84L153.27-5.84 156.35-27.51 155.02-28.8Z" transform="translate(-2.069999933242798, 28.799999237060547)"></path></g>       </g></g> <g data-gra="path-slogan" fill-rule="" class="tp-slogan" transform="translate(133.8949956893921,33.03999900817871)">  <g transform="scale(1, 1)"><g transform="scale(1)"><path d="M11.94-1.08L12.61-1.08L12.12 0.07L11.21 0.07Q10.71 0.07 10.35-0.29Q9.98-0.64 9.98-1.16L9.98-1.16L9.98-4.87L11.66-4.87L11.66-2.04L11.66-1.81L11.66-1.36Q11.66-1.25 11.75-1.16Q11.83-1.08 11.94-1.08L11.94-1.08ZM3.50-3.96L2.20 0.06L0.25 0.06L1.55-3.96L3.50-3.96ZM1.55-4.62L0.25-7.78L1.20-7.78L0.25-10.09L2.20-10.09L3.50-6.94L2.53-6.94L3.50-4.62L1.55-4.62ZM3.67-8.36L3.67-9.60L6.82-9.60L6.61-10.16L8.95-10.16L9.16-9.60L12.46-9.60L12.46-8.36L7.69-8.36L6.55-6.64L10.42-6.64L10.16-7.43L11.84-7.43L12.53-5.18L10.85-5.18L10.77-5.45L3.91-5.45L5.52-8.36L3.67-8.36ZM4.69-4.87L6.37-4.87L5.84 0.04L4.16 0.04L4.69-4.87ZM9.09-4.87L9.09 0.04L7.41 0.04L7.41-4.87L9.09-4.87ZM22.70 0.03L22.70-4.07L18.72-4.07L18.72-5.53L22.70-5.53L22.70-7.66L19.14-7.66L19.14-9.11L22.70-9.11L22.70-10.11L24.59-10.11L24.59-9.11L28.16-9.11L27.74-10.11L29.70-10.11L30.55-8.13L29.67-8.13L29.67-5.53L31.03-5.53L31.03-1.41Q31.03-0.85 30.63-0.46L30.63-0.46Q30.21-0.07 29.67-0.07L29.67-0.07L27.64-0.07L28.28-1.53L28.84-1.53Q28.95-1.53 29.05-1.61L29.05-1.61Q29.14-1.71 29.14-1.82L29.14-1.82L29.14-4.07L24.59-4.07L24.59 0.03L22.70 0.03ZM24.59-7.66L24.59-5.53L27.78-5.53L27.78-7.66L24.59-7.66Z" transform="translate(-0.252, 10.164)"></path></g></g></g></g></mask><defs v-gra="od"><linearGradient x1="0" y1="1" x2="0" y2="0" id="6a6d18ea-997e-40d2-9983-bb69698e5898"><stop offset="0%" stop-color="#00c9ff"></stop><stop offset="100%" stop-color="#92fe9d"></stop></linearGradient><filter id="42443b3f1de60f6b6fd3b6a9844b4764" filterUnits="objectBoundingBox"><feColorMatrix type="matrix" values="0 0 0 0 0.99609375  0 0 0 0 0.99609375  0 0 0 0 0.99609375  0 0 0 1 0"></feColorMatrix></filter></defs><defs v-gra="id"><filter id="7ead578f-fc75-4722-85ed-946834a68e07" filterUnits="userSpaceOnUse"><feColorMatrix type="matrix" values="0 0 0 0 0.99609375  0 0 0 0 0.99609375  0 0 0 0 0.99609375  0 0 0 1 0"></feColorMatrix></filter><linearGradient x1="0" y1="1" x2="0" y2="0" id="hDNsIaWv8nChgTR2lrez6"><stop offset="0%" stop-color="#00c9ff"></stop><stop offset="100%" stop-color="#92fe9d"></stop></linearGradient><filter id="42443b3f1de60f6b6fd3b6a9844b4764" filterUnits="objectBoundingBox"><feColorMatrix type="matrix" values="0 0 0 0 0.99609375  0 0 0 0 0.99609375  0 0 0 0 0.99609375  0 0 0 1 0"></feColorMatrix></filter></defs><mask v-gra="im" id="8d1f8474-88f2-45fe-a233-a2d22dfdf60d"><g mask="url(#ed06b7d1-dabf-4293-8db9-4b0c9d229b11)" filter="url(#7ead578f-fc75-4722-85ed-946834a68e07)"><g><rect fill="#ffffff" fill-opacity="0" stroke-width="2" x="0" y="0" width="110" height="103.96385838232236" class="image-rect"></rect> <svg x="0" y="0" width="110" height="103.96385838232236" filtersec="colorsf6494169955" class="image-svg-svg primary" style="overflow: visible;"><svg viewBox="0.771247386932373 0.21232318878173828 109.73983764648438 103.71829223632812" xmlns="http://www.w3.org/2000/svg"><path d="M104.932 7.66c13.298 14.78 2.01 46.646-25.212 71.173-27.222 24.528-60.071 32.43-73.37 17.65C1.34 90.913-.18 82.92 1.327 73.808c.172 3.994 1.352 7.524 3.643 10.356 10.075 12.45 37.823 6.677 61.978-12.895 24.155-19.573 35.57-45.533 25.495-57.984-8.083-9.99-27.543-8.248-47.396 2.94-2.452 3.455-2.232 5.916-1.777 8.168l.074.36c.165.778.342 1.536.428 2.306-4.057-3.383-9.28-2.978-15.667 1.213l-.356.237c6.167-5 8.225-10 6.173-15 .6.262 1.174.582 1.758.909l.319.178.322.177c1.83.993 3.879 1.854 7.239 1.02C67.812-1.02 93.542-4.998 104.932 7.66z" fill-rule="evenodd" opacity=".989"></path></svg></svg> <defs><filter id="colors8690001056"><feColorMatrix type="matrix" values="0 0 0 0 0.95703125  0 0 0 0 0.5625  0 0 0 0 0.046875  0 0 0 1 0" class="icon-fecolormatrix"></feColorMatrix></filter> <filter id="colorsf6494169955"><feColorMatrix type="matrix" values="0 0 0 0 0.99609375  0 0 0 0 0.99609375  0 0 0 0 0.99609375  0 0 0 1 0" class="icon-fecolormatrix"></feColorMatrix></filter> <filter id="colorsb7803835570"><feColorMatrix type="matrix" values="0 0 0 0 0  0 0 0 0 0  0 0 0 0 0  0 0 0 1 0" class="icon-fecolormatrix"></feColorMatrix></filter></defs></g></g></mask></svg>
